<?xml version="1.0" encoding="utf-8"?>
<svg version="1.1" xmlns:xlink="http://www.w3.org/1999/xlink" width="271px" height="106px" xmlns="http://www.w3.org/2000/svg">
  <defs>
    <mask fill="white" id="clip441">
      <path d="M 0 106  L 0 0  L 101.599999999999 0  L 271 0  L 271 106  L 154.570370370376 106  L 0 106  Z " fill-rule="evenodd" />
    </mask>
  </defs>
  <g transform="matrix(1 0 0 1 -105 -147 )">
    <path d="M 0 106  L 0 0  L 101.599999999999 0  L 271 0  L 271 106  L 154.570370370376 106  L 0 106  Z " fill-rule="nonzero" fill="#ffffff" stroke="none" transform="matrix(1 0 0 1 105 147 )" />
    <path d="M 0 106  L 0 0  L 101.599999999999 0  L 271 0  L 271 106  L 154.570370370376 106  L 0 106  Z " stroke-width="2" stroke="#ffffff" fill="none" transform="matrix(1 0 0 1 105 147 )" mask="url(#clip441)" />
  </g>
</svg>