<?xml version="1.0" encoding="utf-8"?>
<svg version="1.1" xmlns:xlink="http://www.w3.org/1999/xlink" width="327px" height="77px" xmlns="http://www.w3.org/2000/svg">
  <defs>
    <mask fill="white" id="clip910">
      <path d="M 0 42.4632352941177  L 23 27.72  L 23 0.256666666666691  L 327 0  L 327 77  L 23 77  L 23 41.8970588235294  L 0 42.4632352941177  Z " fill-rule="evenodd" />
    </mask>
  </defs>
  <g transform="matrix(1 0 0 1 -311 -111 )">
    <path d="M 0 42.4632352941177  L 23 27.72  L 23 0.256666666666691  L 327 0  L 327 77  L 23 77  L 23 41.8970588235294  L 0 42.4632352941177  Z " fill-rule="nonzero" fill="#010101" stroke="none" transform="matrix(1 0 0 1 311 111 )" />
    <path d="M 0 42.4632352941177  L 23 27.72  L 23 0.256666666666691  L 327 0  L 327 77  L 23 77  L 23 41.8970588235294  L 0 42.4632352941177  Z " stroke-width="2" stroke="#010101" fill="none" transform="matrix(1 0 0 1 311 111 )" mask="url(#clip910)" />
  </g>
</svg>