<?xml version="1.0" encoding="utf-8"?>
<svg version="1.1" xmlns:xlink="http://www.w3.org/1999/xlink" width="124px" height="51px" xmlns="http://www.w3.org/2000/svg">
  <defs>
    <mask fill="white" id="clip199">
      <path d="M 0 51  L 0 0  L 85.3681917211329 0  L 124 0  L 124 51  L 70.7259259259285 51  L 0 51  Z " fill-rule="evenodd" />
    </mask>
  </defs>
  <g transform="matrix(1 0 0 1 -43 -275 )">
    <path d="M 0 51  L 0 0  L 85.3681917211329 0  L 124 0  L 124 51  L 70.7259259259285 51  L 0 51  Z " fill-rule="nonzero" fill="#ffffff" stroke="none" transform="matrix(1 0 0 1 43 275 )" />
    <path d="M 0 51  L 0 0  L 85.3681917211329 0  L 124 0  L 124 51  L 70.7259259259285 51  L 0 51  Z " stroke-width="2" stroke="#ffffff" fill="none" transform="matrix(1 0 0 1 43 275 )" mask="url(#clip199)" />
  </g>
</svg>