<?xml version="1.0" encoding="utf-8"?>
<svg version="1.1" xmlns:xlink="http://www.w3.org/1999/xlink" width="220px" height="48px" xmlns="http://www.w3.org/2000/svg">
  <defs>
    <mask fill="white" id="clip414">
      <path d="M 0 48  L 0 0  L 80.9246231155787 0  L 113.746510329426 0  L 124.801786711337 0  L 220 0  L 220 48  L 0 48  Z " fill-rule="evenodd" />
    </mask>
  </defs>
  <g transform="matrix(1 0 0 1 -1017 -250 )">
    <path d="M 0 48  L 0 0  L 80.9246231155787 0  L 113.746510329426 0  L 124.801786711337 0  L 220 0  L 220 48  L 0 48  Z " fill-rule="nonzero" fill="#ffffff" stroke="none" transform="matrix(1 0 0 1 1017 250 )" />
    <path d="M 0 48  L 0 0  L 80.9246231155787 0  L 113.746510329426 0  L 124.801786711337 0  L 220 0  L 220 48  L 0 48  Z " stroke-width="2" stroke="#ffffff" fill="none" transform="matrix(1 0 0 1 1017 250 )" mask="url(#clip414)" />
  </g>
</svg>