<?xml version="1.0" encoding="utf-8"?>
<svg version="1.1" xmlns:xlink="http://www.w3.org/1999/xlink" width="227px" height="69px" xmlns="http://www.w3.org/2000/svg">
  <defs>
    <mask fill="white" id="clip205">
      <path d="M 0 69  L 0 0  L 83.499497487438 0  L 117.365717476272 0  L 128.772752652152 0  L 227 0  L 227 69  L 0 69  Z " fill-rule="evenodd" />
    </mask>
  </defs>
  <g transform="matrix(1 0 0 1 -1119 -412 )">
    <path d="M 0 69  L 0 0  L 83.499497487438 0  L 117.365717476272 0  L 128.772752652152 0  L 227 0  L 227 69  L 0 69  Z " fill-rule="nonzero" fill="#ffffff" stroke="none" transform="matrix(1 0 0 1 1119 412 )" />
    <path d="M 0 69  L 0 0  L 83.499497487438 0  L 117.365717476272 0  L 128.772752652152 0  L 227 0  L 227 69  L 0 69  Z " stroke-width="2" stroke="#ffffff" fill="none" transform="matrix(1 0 0 1 1119 412 )" mask="url(#clip205)" />
  </g>
</svg>