<?xml version="1.0" encoding="utf-8"?>
<svg version="1.1" xmlns:xlink="http://www.w3.org/1999/xlink" width="332px" height="32px" xmlns="http://www.w3.org/2000/svg">
  <defs>
    <mask fill="white" id="clip888">
      <path d="M 0 32  L 0 0  L 190.954248366016 0  L 332 0  L 332 32  L 189.36296296297 32  L 0 32  Z " fill-rule="evenodd" />
    </mask>
  </defs>
  <g transform="matrix(1 0 0 1 -682 -7 )">
    <path d="M 0 32  L 0 0  L 190.954248366016 0  L 332 0  L 332 32  L 189.36296296297 32  L 0 32  Z " fill-rule="nonzero" fill="#ffffff" stroke="none" transform="matrix(1 0 0 1 682 7 )" />
    <path d="M 0 32  L 0 0  L 190.954248366016 0  L 332 0  L 332 32  L 189.36296296297 32  L 0 32  Z " stroke-width="2" stroke="#ffffff" fill="none" transform="matrix(1 0 0 1 682 7 )" mask="url(#clip888)" />
  </g>
</svg>