<?xml version="1.0" encoding="utf-8"?>
<svg version="1.1" xmlns:xlink="http://www.w3.org/1999/xlink" width="334px" height="52px" xmlns="http://www.w3.org/2000/svg">
  <defs>
    <mask fill="white" id="clip871">
      <path d="M 0 52  L 0 0  L 99.0251256281407 0  L 136.621105527641 0  L 233.29648241206 0  L 334 0  L 334 52  L 0 52  Z " fill-rule="evenodd" />
    </mask>
  </defs>
  <g transform="matrix(1 0 0 1 -51 -57 )">
    <path d="M 0 52  L 0 0  L 99.0251256281407 0  L 136.621105527641 0  L 233.29648241206 0  L 334 0  L 334 52  L 0 52  Z " fill-rule="nonzero" fill="#000000" stroke="none" transform="matrix(1 0 0 1 51 57 )" />
    <path d="M 0 52  L 0 0  L 99.0251256281407 0  L 136.621105527641 0  L 233.29648241206 0  L 334 0  L 334 52  L 0 52  Z " stroke-width="2" stroke="#000000" fill="none" transform="matrix(1 0 0 1 51 57 )" mask="url(#clip871)" />
  </g>
</svg>