<?xml version="1.0" encoding="utf-8"?>
<svg version="1.1" xmlns:xlink="http://www.w3.org/1999/xlink" width="305px" height="60px" xmlns="http://www.w3.org/2000/svg">
  <defs>
    <mask fill="white" id="clip194">
      <path d="M 0 60  L 0 0  L 90.427135678392 0  L 124.758793969851 0  L 213.040201005025 0  L 305 0  L 305 60  L 0 60  Z " fill-rule="evenodd" />
    </mask>
  </defs>
  <g transform="matrix(1 0 0 1 -385 -53 )">
    <path d="M 0 60  L 0 0  L 90.427135678392 0  L 124.758793969851 0  L 213.040201005025 0  L 305 0  L 305 60  L 0 60  Z " fill-rule="nonzero" fill="#000000" stroke="none" transform="matrix(1 0 0 1 385 53 )" />
    <path d="M 0 60  L 0 0  L 90.427135678392 0  L 124.758793969851 0  L 213.040201005025 0  L 305 0  L 305 60  L 0 60  Z " stroke-width="2" stroke="#000000" fill="none" transform="matrix(1 0 0 1 385 53 )" mask="url(#clip194)" />
  </g>
</svg>