<?xml version="1.0" encoding="utf-8"?>
<svg version="1.1" xmlns:xlink="http://www.w3.org/1999/xlink" width="199px" height="26px" xmlns="http://www.w3.org/2000/svg">
  <defs>
    <mask fill="white" id="clip405">
      <path d="M 0 26  L 0 0  L 73.2000000000007 0  L 102.88888888889 0  L 199 0  L 199 26  L 0 26  Z " fill-rule="evenodd" />
    </mask>
  </defs>
  <g transform="matrix(1 0 0 1 -1246 -188 )">
    <path d="M 0 26  L 0 0  L 73.2000000000007 0  L 102.88888888889 0  L 199 0  L 199 26  L 0 26  Z " fill-rule="nonzero" fill="#ffffff" stroke="none" transform="matrix(1 0 0 1 1246 188 )" />
    <path d="M 0 26  L 0 0  L 73.2000000000007 0  L 102.88888888889 0  L 199 0  L 199 26  L 0 26  Z " stroke-width="2" stroke="#ffffff" fill="none" transform="matrix(1 0 0 1 1246 188 )" mask="url(#clip405)" />
  </g>
</svg>