<?xml version="1.0" encoding="utf-8"?>
<svg version="1.1" xmlns:xlink="http://www.w3.org/1999/xlink" width="191px" height="38px" xmlns="http://www.w3.org/2000/svg">
  <defs>
    <mask fill="white" id="clip196">
      <path d="M 0 20.9558823529412  L 13 13.68  L 13 0.126666666666679  L 191 0  L 191 38  L 13 38  L 13 20.6764705882353  L 0 20.9558823529412  Z " fill-rule="evenodd" />
    </mask>
  </defs>
  <g transform="matrix(1 0 0 1 -1254 -52 )">
    <path d="M 0 20.9558823529412  L 13 13.68  L 13 0.126666666666679  L 191 0  L 191 38  L 13 38  L 13 20.6764705882353  L 0 20.9558823529412  Z " fill-rule="nonzero" fill="#010101" stroke="none" transform="matrix(1 0 0 1 1254 52 )" />
    <path d="M 0 20.9558823529412  L 13 13.68  L 13 0.126666666666679  L 191 0  L 191 38  L 13 38  L 13 20.6764705882353  L 0 20.9558823529412  Z " stroke-width="2" stroke="#010101" fill="none" transform="matrix(1 0 0 1 1254 52 )" mask="url(#clip196)" />
  </g>
</svg>