<?xml version="1.0" encoding="utf-8"?>
<svg version="1.1" xmlns:xlink="http://www.w3.org/1999/xlink" width="185px" height="300px" xmlns="http://www.w3.org/2000/svg">
  <defs>
    <mask fill="white" id="clip869">
      <path d="M 0 298  L 0 2  C 0 0.88  0.88 0  2 0  L 183 0  C 184.12 0  185 0.88  185 2  L 185 298  C 185 299.12  184.12 300  183 300  L 115.799999999999 300  L 2 300  C 0.88 300  0 299.12  0 298  Z " fill-rule="evenodd" />
    </mask>
  </defs>
  <g>
    <path d="M 0 298  L 0 2  C 0 0.88  0.88 0  2 0  L 183 0  C 184.12 0  185 0.88  185 2  L 185 298  C 185 299.12  184.12 300  183 300  L 115.799999999999 300  L 2 300  C 0.88 300  0 299.12  0 298  Z " fill-rule="nonzero" fill="#ffffff" stroke="none" />
    <path d="M 0 298  L 0 2  C 0 0.88  0.88 0  2 0  L 183 0  C 184.12 0  185 0.88  185 2  L 185 298  C 185 299.12  184.12 300  183 300  L 115.799999999999 300  L 2 300  C 0.88 300  0 299.12  0 298  Z " stroke-width="2" stroke="#c9c9c9" fill="none" mask="url(#clip869)" />
  </g>
</svg>