<?xml version="1.0" encoding="utf-8"?>
<svg version="1.1" xmlns:xlink="http://www.w3.org/1999/xlink" width="184px" height="60px" xmlns="http://www.w3.org/2000/svg">
  <defs>
    <mask fill="white" id="clip403">
      <path d="M 0 58  L 0 2  C 0 0.88  0.88 0  2 0  L 182 0  C 183.12 0  184 0.88  184 2  L 184 58  C 184 59.12  183.12 60  182 60  L 149.000000000001 60  L 2 60  C 0.88 60  0 59.12  0 58  Z " fill-rule="evenodd" />
    </mask>
  </defs>
  <g>
    <path d="M 0 58  L 0 2  C 0 0.88  0.88 0  2 0  L 182 0  C 183.12 0  184 0.88  184 2  L 184 58  C 184 59.12  183.12 60  182 60  L 149.000000000001 60  L 2 60  C 0.88 60  0 59.12  0 58  Z " fill-rule="nonzero" fill="#000000" stroke="none" />
    <path d="M 0 58  L 0 2  C 0 0.88  0.88 0  2 0  L 182 0  C 183.12 0  184 0.88  184 2  L 184 58  C 184 59.12  183.12 60  182 60  L 149.000000000001 60  L 2 60  C 0.88 60  0 59.12  0 58  Z " stroke-width="2" stroke="#f0eef0" fill="none" mask="url(#clip403)" />
  </g>
</svg>