<?xml version="1.0" encoding="utf-8"?>
<svg version="1.1" xmlns:xlink="http://www.w3.org/1999/xlink" width="20px" height="20px" xmlns="http://www.w3.org/2000/svg">
  <g transform="matrix(1 0 0 1 -449 -385 )">
    <path d="M 459 389  C 462.36 389  465 391.64  465 395  C 465 398.36  462.36 401  459 401  C 455.64 401  453 398.36  453 395  C 453 391.64  455.64 389  459 389  Z " fill-rule="nonzero" fill="#ffffff" stroke="none" fill-opacity="0" />
    <path d="M 459 387.5  C 463.2 387.5  466.5 390.8  466.5 395  C 466.5 399.2  463.2 402.5  459 402.5  C 454.8 402.5  451.5 399.2  451.5 395  C 451.5 390.8  454.8 387.5  459 387.5  Z " stroke-width="5" stroke="#5fb878" fill="none" />
  </g>
</svg>