<?xml version="1.0" encoding="utf-8"?>
<svg version="1.1" xmlns:xlink="http://www.w3.org/1999/xlink" width="20px" height="23px" xmlns="http://www.w3.org/2000/svg">
  <g transform="matrix(1 0 0 1 -415 -385 )">
    <path d="M 12.3567708333333 8.78971354166667  C 13.0078125 9.53841145833333  13.3333333333333 10.4418402777778  13.3333333333333 11.5  C 13.3333333333333 12.5581597222222  13.0078125 13.4615885416667  12.3567708333333 14.2102864583333  C 11.7057291666667 14.958984375  10.9201388888889 15.3333333333333  10 15.3333333333333  C 9.07986111111111 15.3333333333333  8.29427083333333 14.958984375  7.64322916666667 14.2102864583333  C 6.9921875 13.4615885416667  6.66666666666667 12.5581597222222  6.66666666666667 11.5  C 6.66666666666667 10.4418402777778  6.9921875 9.53841145833333  7.64322916666667 8.78971354166667  C 8.29427083333333 8.041015625  9.07986111111111 7.66666666666667  10 7.66666666666667  C 10.9201388888889 7.66666666666667  11.7057291666667 8.041015625  12.3567708333333 8.78971354166667  Z M 13.5546875 4.447265625  C 12.4696180555556 3.71853298611111  11.2847222222222 3.35416666666667  10 3.35416666666667  C 8.71527777777778 3.35416666666667  7.53038194444445 3.71853298611111  6.4453125 4.447265625  C 5.36024305555556 5.17599826388889  4.50086805555556 6.16427951388889  3.8671875 7.412109375  C 3.23350694444444 8.65993923611111  2.91666666666667 10.0225694444444  2.91666666666667 11.5  C 2.91666666666667 12.9774305555556  3.23350694444444 14.3400607638889  3.8671875 15.587890625  C 4.50086805555556 16.8357204861111  5.36024305555556 17.8240017361111  6.4453125 18.552734375  C 7.53038194444445 19.2814670138889  8.71527777777778 19.6458333333333  10 19.6458333333333  C 11.2847222222222 19.6458333333333  12.4696180555556 19.2814670138889  13.5546875 18.552734375  C 14.6397569444444 17.8240017361111  15.4991319444444 16.8357204861111  16.1328125 15.587890625  C 16.7664930555556 14.3400607638889  17.0833333333333 12.9774305555556  17.0833333333333 11.5  C 17.0833333333333 10.0225694444444  16.7664930555556 8.65993923611111  16.1328125 7.412109375  C 15.4991319444444 6.16427951388889  14.6397569444444 5.17599826388889  13.5546875 4.447265625  Z M 18.6588541666667 5.7275390625  C 19.5529513888889 7.48947482638889  20 9.41362847222222  20 11.5  C 20 13.5863715277778  19.5529513888889 15.5105251736111  18.6588541666667 17.2724609375  C 17.7647569444444 19.0343967013889  16.5516493055556 20.4294704861111  15.01953125 21.4576822916667  C 13.4874131944444 22.4858940972222  11.8142361111111 23  10 23  C 8.18576388888889 23  6.51258680555556 22.4858940972222  4.98046875 21.4576822916667  C 3.44835069444444 20.4294704861111  2.23524305555556 19.0343967013889  1.34114583333333 17.2724609375  C 0.447048611111111 15.5105251736111  0 13.5863715277778  0 11.5  C 0 9.41362847222222  0.447048611111111 7.48947482638889  1.34114583333333 5.7275390625  C 2.23524305555556 3.96560329861111  3.44835069444444 2.57052951388889  4.98046875 1.54231770833333  C 6.51258680555556 0.514105902777776  8.18576388888889 0  10 0  C 11.8142361111111 0  13.4874131944444 0.514105902777776  15.01953125 1.54231770833333  C 16.5516493055556 2.57052951388889  17.7647569444444 3.96560329861111  18.6588541666667 5.7275390625  Z " fill-rule="nonzero" fill="#e6e6e6" stroke="none" transform="matrix(1 0 0 1 415 385 )" />
  </g>
</svg>