<?xml version="1.0" encoding="utf-8"?>
<svg version="1.1" xmlns:xlink="http://www.w3.org/1999/xlink" width="16px" height="16px" xmlns="http://www.w3.org/2000/svg">
  <g transform="matrix(1 0 0 1 -420 -342 )">
    <path d="M 0 3.42857142857143  L 8 0  L 16 3.42857142857143  L 16 4.57142857142857  L 14.9333333333333 4.57142857142857  C 14.9333333333333 4.72619047619048  14.8763888888889 4.86011904761905  14.7625 4.97321428571429  C 14.6486111111111 5.08630952380952  14.5138888888889 5.14285714285714  14.3583333333333 5.14285714285714  L 1.64166666666667 5.14285714285714  C 1.48611111111111 5.14285714285714  1.35138888888889 5.08630952380952  1.2375 4.97321428571429  C 1.12361111111111 4.86011904761905  1.06666666666667 4.72619047619048  1.06666666666667 4.57142857142857  L 0 4.57142857142857  L 0 3.42857142857143  Z M 2.13333333333333 12.5714285714286  L 2.13333333333333 5.71428571428571  L 4.26666666666667 5.71428571428571  L 4.26666666666667 12.5714285714286  L 5.33333333333333 12.5714285714286  L 5.33333333333333 5.71428571428571  L 7.46666666666667 5.71428571428571  L 7.46666666666667 12.5714285714286  L 8.53333333333333 12.5714285714286  L 8.53333333333333 5.71428571428571  L 10.6666666666667 5.71428571428571  L 10.6666666666667 12.5714285714286  L 11.7333333333333 12.5714285714286  L 11.7333333333333 5.71428571428571  L 13.8666666666667 5.71428571428571  L 13.8666666666667 12.5714285714286  L 14.3583333333333 12.5714285714286  C 14.5138888888889 12.5714285714286  14.6486111111111 12.6279761904762  14.7625 12.7410714285714  C 14.8763888888889 12.8541666666667  14.9333333333333 12.9880952380952  14.9333333333333 13.1428571428571  L 14.9333333333333 13.7142857142857  L 1.06666666666667 13.7142857142857  L 1.06666666666667 13.1428571428571  C 1.06666666666667 12.9880952380952  1.12361111111111 12.8541666666667  1.2375 12.7410714285714  C 1.35138888888889 12.6279761904762  1.48611111111111 12.5714285714286  1.64166666666667 12.5714285714286  L 2.13333333333333 12.5714285714286  Z M 0.575 14  L 15.425 14  C 15.5805555555556 14.2857142857143  15.7152777777778 14.3422619047619  15.8291666666667 14.4553571428571  C 15.9430555555556 14.5684523809524  16 14.702380952381  16 14.8571428571429  L 16 16  L 0 16  L 0 14.8571428571429  C 0 14.702380952381  0.0569444444444444 14.5684523809524  0.170833333333333 14.4553571428571  C 0.284722222222222 14.3422619047619  0.419444444444444 14.2857142857143  0.575 14  Z " fill-rule="nonzero" fill="#ededed" stroke="none" transform="matrix(1 0 0 1 420 342 )" />
  </g>
</svg>